<?xml version="1.0"?>
<svg width="64" height="64" xmlns="http://www.w3.org/2000/svg" xmlns:svg="http://www.w3.org/2000/svg">
 <g>
  <title>Layer 1</title>
  <g id="svg_1">
   <g id="circle_copy">
    <g id="svg_2">
     <path fill="#ffffff" id="svg_3" d="m32,0c-17.673,0 -32,14.327 -32,32s14.327,32 32,32s32,-14.327 32,-32s-14.327,-32 -32,-32zm0,62.000999c-16.568,0 -30,-13.431999 -30,-30c0,-16.568999 13.432,-30.000999 30,-30.000999s30,13.432 30,30.000999c0,16.568001 -13.431999,30 -30,30z"/>
    </g>
   </g>
   <g id="_x40_">
    <g id="svg_4">
     <path fill="#ffffff" id="svg_5" d="m42.569,24.607485c-0.955002,-1.754002 -2.306,-3.106001 -4.052002,-4.060001c-1.746998,-0.952999 -3.741997,-1.43 -5.983997,-1.43c-2.67,0 -5.038,0.587 -7.103001,1.762001c-2.065001,1.174 -3.656,2.83 -4.771,4.966999c-1.116001,2.139 -1.674,4.576 -1.674,7.314001c0,3.77 1.046,6.704998 3.136999,8.806c2.091,2.101002 5.030001,3.151001 8.815001,3.151001c2.544998,0 4.819,-0.442001 6.820999,-1.327l0,-2.101002c-2.356998,0.904999 -4.630001,1.358002 -6.820999,1.358002c-3.16,0 -5.58,-0.863003 -7.259001,-2.591c-1.678999,-1.727001 -2.518999,-4.196003 -2.518999,-7.408001c0,-2.369001 0.454,-4.457001 1.361,-6.263c0.907999,-1.806 2.222,-3.196001 3.941999,-4.17c1.721001,-0.975 3.745001,-1.462 6.070002,-1.462c1.845997,0 3.480999,0.388 4.904999,1.160999c1.423,0.774 2.521,1.878 3.292999,3.309999c0.771,1.433001 1.158001,3.102001 1.158001,5.008001c0,1.811001 -0.297001,3.281998 -0.892002,4.413998c-0.594997,1.133003 -1.366997,1.698002 -2.314999,1.698002c-1.388,0 -2.081001,-0.937 -2.081001,-2.812l0,-0.348l0.391003,-7.424c-0.720001,-0.231001 -1.528,-0.413 -2.424999,-0.545s-1.700001,-0.197001 -2.409,-0.197001c-2.002001,0 -3.619001,0.671 -4.850002,2.014c-1.230999,1.343 -1.845999,3.087999 -1.845999,5.236c0,1.854 0.440001,3.32 1.322001,4.399002s2.103998,1.618999 3.668999,1.618999c1.063,0 1.984001,-0.258003 2.761002,-0.774002c0.777,-0.515999 1.375,-1.230999 1.792,-2.147999l0.125,0c0.114998,0.854 0.479,1.554001 1.094997,2.102001c0.615002,0.546997 1.371002,0.820999 2.268002,0.820999c1.084999,0 2.043999,-0.343002 2.879002,-1.027c0.834,-0.685001 1.48,-1.646999 1.938999,-2.890999c0.459999,-1.240002 0.688999,-2.610001 0.688999,-4.105001c0,-2.285 -0.477001,-4.304001 -1.431,-6.056999zm-8.174,7.193998c-0.188,3.297001 -1.361,4.944 -3.521,4.944c-2.034,0 -3.050001,-1.336998 -3.050001,-4.012001c0,-1.684998 0.383001,-3.001999 1.150002,-3.948997c0.766998,-0.948002 1.827999,-1.422001 3.184,-1.422001c0.885998,0 1.705997,0.105 2.455997,0.316l-0.218998,4.122999z"/>
    </g>
   </g>
  </g>
  <g id="svg_6"/>
  <g id="svg_7"/>
  <g id="svg_8"/>
  <g id="svg_9"/>
  <g id="svg_10"/>
  <g id="svg_11"/>
  <g id="svg_12"/>
  <g id="svg_13"/>
  <g id="svg_14"/>
  <g id="svg_15"/>
  <g id="svg_16"/>
  <g id="svg_17"/>
  <g id="svg_18"/>
  <g id="svg_19"/>
  <g id="svg_20"/>
 </g>
</svg>